<?xml version="1.0" standalone="no"?>
<!DOCTYPE svg PUBLIC "-//W3C//DTD SVG 20010904//EN"
 "http://www.w3.org/TR/2001/REC-SVG-20010904/DTD/svg10.dtd">
<svg version="1.0" xmlns="http://www.w3.org/2000/svg"
 width="64.000000pt" height="64.000000pt" viewBox="0 0 64.000000 64.000000"
 preserveAspectRatio="xMidYMid meet">

<g transform="translate(0.000000,64.000000) scale(0.100000,-0.100000)"
fill="#000000" stroke="none">
<path d="M248 583 c-4 -47 -29 -55 -64 -22 l-25 23 -51 -52 -52 -51 23 -25
c31 -33 24 -60 -17 -64 l-32 -3 0 -69 0 -69 32 -3 c41 -4 48 -31 17 -64 l-23
-25 52 -51 51 -52 25 23 c35 33 60 25 64 -22 3 -36 4 -37 43 -37 l39 0 0 59
c0 50 3 59 20 64 17 4 20 0 20 -24 0 -16 -5 -38 -12 -48 -15 -24 -4 -51 22
-51 26 0 37 27 22 51 -18 28 -15 86 4 93 23 9 24 8 24 -18 0 -16 7 -27 20 -31
23 -7 25 -18 8 -44 -15 -24 -4 -51 22 -51 26 0 37 27 22 51 -7 10 -12 25 -12
33 0 8 -9 18 -20 21 -25 8 -27 52 -2 94 20 36 38 40 47 11 3 -11 13 -20 21
-20 8 0 23 -5 33 -12 24 -15 51 -4 51 22 0 26 -27 37 -51 22 -26 -17 -37 -15
-44 8 -3 11 -12 20 -20 20 -8 0 -11 7 -8 20 6 23 42 27 72 8 24 -15 51 -4 51
22 0 26 -27 37 -51 22 -30 -19 -66 -15 -72 8 -3 13 0 20 8 20 8 0 17 9 20 20
7 23 18 25 44 8 24 -15 51 -4 51 22 0 26 -27 37 -51 22 -10 -7 -25 -12 -33
-12 -8 0 -18 -9 -21 -20 -9 -29 -27 -25 -47 11 -25 42 -23 86 2 94 11 3 20 13
20 21 0 8 5 23 12 33 15 24 4 51 -22 51 -26 0 -37 -27 -22 -51 17 -26 15 -37
-8 -44 -13 -4 -20 -15 -20 -32 0 -19 -4 -24 -16 -19 -9 3 -18 6 -20 6 -9 0 -3
72 8 89 15 24 4 51 -22 51 -26 0 -37 -27 -22 -51 7 -10 12 -32 12 -48 0 -24
-3 -28 -20 -24 -17 5 -20 14 -20 64 l0 59 -39 0 c-39 0 -40 -1 -43 -37z m62
-33 c0 -45 -2 -50 -22 -50 -36 0 -102 -46 -126 -88 -31 -55 -30 -132 2 -186
25 -43 88 -86 125 -86 19 0 21 -6 21 -50 0 -43 -3 -50 -20 -50 -16 0 -20 7
-20 33 0 26 -6 36 -25 45 -35 16 -45 15 -67 -5 -18 -16 -20 -15 -50 15 -30 30
-31 32 -15 50 20 22 21 32 5 67 -8 18 -19 25 -40 25 -27 0 -28 2 -28 50 0 48
1 50 28 50 21 0 32 7 40 25 16 35 15 45 -5 67 -16 18 -15 20 15 50 30 30 32
31 50 15 22 -20 32 -21 67 -5 19 9 25 19 25 45 0 26 4 33 20 33 17 0 20 -7 20
-50z m94 -149 c26 -27 31 -39 31 -81 0 -43 -5 -54 -33 -82 -47 -48 -117 -48
-164 0 -28 28 -33 39 -33 81 0 52 25 92 70 112 37 16 96 3 129 -30z"/>
<path d="M265 324 c-17 -61 -14 -79 10 -48 15 19 15 19 30 0 8 -11 17 -17 20
-14 9 8 -25 118 -35 118 -5 0 -16 -25 -25 -56z"/>
<path d="M350 320 c0 -33 4 -60 10 -60 6 0 10 27 10 60 0 33 -4 60 -10 60 -6
0 -10 -27 -10 -60z"/>
</g>
</svg>
